<?xml version="1.0" encoding="utf-8"?>
<!-- Svg Vector Icons : http://www.onlinewebfonts.com/icon -->
<!DOCTYPE svg PUBLIC "-//W3C//DTD SVG 1.1//EN" "http://www.w3.org/Graphics/SVG/1.1/DTD/svg11.dtd">
<svg version="1.1" xmlns="http://www.w3.org/2000/svg" xmlns:xlink="http://www.w3.org/1999/xlink" x="0px" y="0px" viewBox="0 0 1000 1000" enable-background="new 0 0 1000 1000" xml:space="preserve">
<metadata> Svg Vector Icons : http://www.onlinewebfonts.com/icon </metadata>
<g><g transform="translate(0.000000,511.000000) scale(0.100000,-0.100000)"><path d="M6615.1,4992.6c-251.2-41.8-616-193.3-879.1-368.8c-360.8-237.2-665.8-594-809.3-946.9c-113.6-277.1-161.5-741.5-107.6-1062.5c10-65.8,15.9-121.6,14-125.6c-4-4-87.7,21.9-185.4,53.8c-462.5,157.5-863.1,229.2-1283.7,227.2c-271.1,0-358.8-8-504.3-43.8c-448.5-111.6-845.2-338.9-1206-689.7C1159.2,1558,880.1,975.9,790.4,246.3c-29.9-253.2-12-974.8,29.9-1241.9c139.5-861.1,482.4-1724.3,994.7-2491.7c414.6-621.9,759.5-970.8,1140.2-1156.2c408.7-199.3,777.4-195.3,1251.8,12c436.6,191.4,623.9,237.2,968.8,237.2c334.9,0,534.2-45.8,899-209.3c486.4-217.3,807.3-241.2,1192-83.7c466.5,187.4,1050.5,837.2,1578.8,1758.2c167.4,289,378.7,749.5,378.7,823.3c0,71.7-31.9,99.7-223.3,189.4c-574.1,267.1-956.8,763.5-1094.4,1419.3c-14,65.8-25.9,239.2-23.9,388.7c2,221.3,10,303,51.8,464.5c123.6,470.4,392.7,833.2,837.2,1130.3c149.5,99.7,163.5,115.6,169.4,181.4c6,63.8-8,89.7-111.6,209.3c-390.7,452.5-950.8,777.4-1507,875.1c-199.3,33.9-522.3,39.9-600,10c-55.8-21.9-97.7-105.6-79.7-161.5c27.9-83.7,63.8-97.7,267.1-97.7c566.1,0,1052.5-201.3,1540.9-639.9c73.8-65.8,135.5-127.6,135.5-135.5c0-10-65.8-67.8-145.5-127.6C7595.8,952,7350.6-194.2,7847-1180.9c195.4-388.7,516.3-713.6,934.9-944.9l123.6-69.8l-147.5-297c-372.7-749.5-956.8-1526.9-1353.5-1800c-145.5-99.7-332.9-177.4-484.4-201.3c-215.3-33.9-398.7,2-735.6,151.5c-464.5,203.3-633.9,237.2-1100.4,221.3c-364.8-12-504.3-45.8-920.9-221.3c-326.9-139.5-394.7-157.5-610-159.5c-500.3-4-952.8,350.8-1503,1174.1c-616,922.9-952.8,1923.6-990.7,2940.2c-35.9,926.9,193.4,1600.7,733.6,2164.8c388.7,402.7,861.1,651.8,1347.5,709.7c444.5,51.8,1094.4-75.8,1800-352.8c109.6-43.9,189.4-27.9,221.3,41.9c17.9,37.9,15.9,79.7-10,193.4c-133.6,582.1-87.7,1028.6,147.5,1423.3c91.7,151.5,334.9,408.6,518.3,544.2c225.2,167.4,534.2,309,801.3,366.8l53.8,12v-113.6c-2-261.1-93.7-588-241.2-861.1c-117.6-219.3-253.2-392.7-446.5-574.1c-181.4-171.4-197.3-205.3-127.6-293c63.8-79.7,135.5-69.8,271.1,45.8c324.9,271.1,572.1,637.9,711.7,1058.5c87.7,263.1,119.6,486.4,107.6,743.5c-10,187.4-14,203.3-63.8,247.2C6826.4,5016.5,6788.5,5020.5,6615.1,4992.6z"/></g></g>
</svg>